<svg height="511pt" viewBox="1 -85 511.999 511" width="511pt" xmlns="http://www.w3.org/2000/svg"><path d="m404.5 134.355469c-55.230469 0-100 44.769531-100 100s44.769531 100 100 100 100-44.769531 100-100-44.769531-100-100-100zm0 169.964843c-38.578125 0-69.96875-31.386718-69.96875-69.964843 0-38.582031 31.390625-69.96875 69.96875-69.96875s69.96875 31.386719 69.96875 69.96875c0 38.578125-31.390625 69.964843-69.96875 69.964843zm0 0" fill="#596775"/><path d="m451.0625 145.839844c-8.679688 11.742187-7.703125 28.378906 2.933594 39.015625 27.292968 27.292969 27.292968 71.703125 0 98.996093-27.292969 27.292969-71.699219 27.292969-98.992188 0-10.640625-10.636718-27.273437-11.613281-39.015625-2.9375 16.746094 31.777344 50.097657 53.441407 88.511719 53.441407 55.230469 0 100-44.773438 100-100 0-38.414063-21.664062-71.765625-53.4375-88.515625zm0 0" fill="#35404a"/><path d="m107.5 134.355469c-55.230469 0-100 44.769531-100 100s44.769531 100 100 100 100-44.769531 100-100-44.769531-100-100-100zm0 169.964843c-38.578125 0-69.96875-31.386718-69.96875-69.964843 0-38.582031 31.390625-69.96875 69.96875-69.96875s69.96875 31.386719 69.96875 69.96875c0 38.578125-31.390625 69.964843-69.96875 69.964843zm0 0" fill="#596775"/><path d="m154.0625 145.839844c-8.679688 11.742187-7.703125 28.378906 2.933594 39.015625 27.292968 27.292969 27.292968 71.703125 0 98.996093-27.292969 27.292969-71.699219 27.292969-98.992188 0-10.640625-10.636718-27.273437-11.613281-39.015625-2.9375 16.746094 31.777344 50.097657 53.441407 88.511719 53.441407 55.230469 0 100-44.773438 100-100 0-38.414063-21.664062-71.765625-53.4375-88.515625zm0 0" fill="#35404a"/><path d="m342 8.917969h60c8.28125 0 15 6.71875 15 15 0 12.683593-11.941406 21.980469-24.238281 18.867187l-15.265625-3.867187h-35.496094c-8.285156 0-15-6.714844-15-15 0-8.28125 6.714844-15 15-15zm0 0" fill="#b66652"/><path d="m207.730469 90.75 9.007812-15.605469c2.074219-3.585937.84375-8.171875-2.742187-10.242187l-12.992188-7.5c-3.585937-2.074219-8.171875-.84375-10.242187 2.742187l-70.128907 121.46875c-2.074218 3.585938-.84375 8.171875 2.742188 10.246094l12.992188 7.5c3.585937 2.070313 8.171874.839844 10.242187-2.746094l35.140625-60.863281 56.929688 98.605469 4.328124 7.5c2.679688 4.640625 7.632813 7.5 12.992188 7.5v-45l-48.269531-83.605469h113.859375v-30zm0 0" fill="#4fe267"/><path d="m417.488281 226.855469-69.917969-121.105469 17.667969-30.605469c2.074219-3.585937.84375-8.171875-2.742187-10.242187l-12.992188-7.5c-3.585937-2.074219-8.171875-.84375-10.242187 2.742187l-83.261719 144.210938-12.988281 22.5c-2.683594 4.640625-2.679688 10.359375 0 15 2.679687 4.640625 7.628906 7.5 12.988281 7.5h148.214844c4.101562 0 8.117187-1.535157 10.980468-4.476563 4.832032-4.957031 5.59375-12.308594 2.292969-18.023437zm-135.507812-7.5 48.269531-83.605469 48.269531 83.605469zm0 0" fill="#00b04b"/><path d="m336.746094 132c-1.339844-2.320312-3.816406-3.75-6.496094-3.75s-5.15625 1.429688-6.496094 3.75l-48.269531 83.605469c-1.339844 2.320312-1.339844 5.179687 0 7.5 1.339844 2.320312 3.816406 3.75 6.496094 3.75h96.539062c2.679688 0 5.15625-1.429688 6.496094-3.75 1.339844-2.320313 1.339844-5.179688 0-7.5zm-41.773438 79.855469 35.277344-61.105469 35.277344 61.105469zm0 0"/><path d="m310.765625 117c-1.339844-2.320312-3.816406-3.75-6.496094-3.75h-96.539062c-2.679688 0-5.15625 1.429688-6.496094 3.75s-1.339844 5.179688 0 7.5l48.269531 83.605469c1.339844 2.320312 3.816406 3.75 6.496094 3.75s5.15625-1.429688 6.496094-3.75l48.269531-83.605469c1.339844-2.320312 1.339844-5.179688 0-7.5zm-54.765625 72.355469-35.277344-61.105469h70.558594zm0 0"/><path d="m404.5 126.855469c-11.332031 0-22.429688 1.75-33.085938 5.195312l-15.183593-26.300781 15.503906-26.851562c2.003906-3.472657 2.535156-7.515626 1.5-11.386719-1.039063-3.867188-3.519531-7.101563-6.988281-9.105469l-.078125-.046875 6.894531-11.9375h3.496094l14.363281 3.632813c2.214844.5625 4.457031.839843 6.679687.839843 5.914063 0 11.691407-1.957031 16.496094-5.699219 6.609375-5.144531 10.398438-12.898437 10.398438-21.273437 0-12.40625-10.09375-22.5-22.5-22.5h-60c-12.402344 0-22.5 10.09375-22.5 22.5s10.097656 22.5 22.5 22.5h13.742187l-2.5625 4.445313c-7.15625-4.074219-16.292969-1.605469-20.414062 5.53125l-15.503907 26.851562h-96.539062l2.515625-4.351562c4.136719-7.164063 1.671875-16.355469-5.492187-20.492188l-.128907-.074219-.011719-.007812 20.300782-35.355469c2.695312-4.695312 2.6875-10.300781-.027344-14.984375-2.714844-4.6875-7.566406-7.484375-12.980469-7.484375-6.195312 0-50.210937 0-56.117187 0-12.40625 0-22.5 10.09375-22.5 22.5s10.09375 22.5 22.5 22.5c4.144531 0 7.5-3.359375 7.5-7.5 0-4.144531-3.355469-7.5-7.5-7.5-4.136719 0-7.5-3.367188-7.5-7.5 0-4.136719 3.363281-7.5 7.5-7.5h56.117187l-20.285156 35.328125c-.085937-.046875-.167969-.09375-.253906-.136719-7.078125-3.804687-16.0625-1.269531-20.089844 5.707032l-43.679687 75.65625c-10.65625-3.445313-21.753907-5.195313-33.085938-5.195313-59.273438 0-107.5 48.222656-107.5 107.5 0 59.273437 48.226562 107.5 107.5 107.5s107.5-48.230469 107.5-107.503906c0-4.144531-3.355469-7.5-7.5-7.5s-7.5 3.355469-7.5 7.5c0 51.003906-41.496094 92.5-92.5 92.5s-92.5-41.496094-92.5-92.5c0-51.007813 41.496094-92.5 92.5-92.5 8.667969 0 17.171875 1.1875 25.386719 3.527343l-7.808594 13.527344c-5.75-1.339844-11.640625-2.023437-17.578125-2.023437-42.714844 0-77.46875 34.753906-77.46875 77.46875 0 42.714843 34.753906 77.464843 77.46875 77.464843s77.464844-34.75 77.464844-77.464843c0-19.644531-7.582032-38.589844-20.949219-52.886719l17.734375-30.71875 54.765625 94.855469c4.007813 6.9375 11.472656 11.246093 19.484375 11.246093h43.386719c10.519531 49.25 54.113281 85 105.113281 85 59.273438 0 107.5-48.222656 107.5-107.5 0-59.273437-48.226562-107.496093-107.5-107.496093zm-62.5-95.4375c-4.136719 0-7.5-3.363281-7.5-7.5 0-4.132813 3.363281-7.5 7.5-7.5h60c4.136719 0 7.5 3.367187 7.5 7.5 0 3.71875-1.683594 7.15625-4.613281 9.441406-2.933594 2.28125-6.679688 3.066406-10.28125 2.152344l-15.269531-3.863281c-.601563-.152344-1.21875-.230469-1.839844-.230469zm-172.03125 202.9375c0 34.441406-28.023438 62.464843-62.46875 62.464843s-62.46875-28.019531-62.46875-62.464843c0-34.445313 28.023438-62.46875 62.46875-62.46875 3.242188 0 6.46875.253906 9.652344.75l-3.015625 5.222656c-4.113281 7.117187-1.695313 16.261719 5.378906 20.425781.011719.007813.023437.015625.039063.023438l-18.558594 32.320312c-2.0625 3.59375-.824219 8.175782 2.769531 10.238282 1.175781.675781 2.460937 1 3.726563 1 2.597656 0 5.125-1.355469 6.511718-3.769532l18.539063-32.289062.058593.03125c.027344.019531.0625.039062.097657.058594 7.152343 4.066406 16.285156 1.597656 20.40625-5.539063l2.992187-5.179687c8.894532 11.042968 13.871094 24.886718 13.871094 39.175781zm86.03125 7.5c-2.671875 0-5.160156-1.4375-6.496094-3.75l-61.257812-106.105469c-1.339844-2.320312-3.816406-3.75-6.496094-3.75s-5.15625 1.429688-6.496094 3.75l-27.042968 46.84375c-.011719.019531-.023438.039062-.035157.058594l-8.058593 13.960937c-.027344-.015625-.054688-.03125-.082032-.046875l-12.910156-7.453125 70.15625-121.445312c.046875.023437.09375.046875.136719.070312l12.828125 7.40625-9.011719 15.605469c-1.339844 2.320312-1.339844 5.179688 0 7.5s3.816406 3.75 6.496094 3.75h113.859375c2.679687 0 5.15625-1.429688 6.496094-3.75l17.667968-30.605469 12.992188 7.5-17.671875 30.605469c-1.339844 2.320312-1.339844 5.179688 0 7.5l69.921875 121.101562v.003907c2.777344 4.8125-.394532 11.246093-6.78125 11.246093h-148.214844zm167.984375-18.75-29.136719-50.46875c3.183594-.496094 6.410156-.75 9.652344-.75 34.445312 0 62.46875 28.023437 62.46875 62.46875 0 34.445312-28.023438 62.464843-62.46875 62.464843-25.898438 0-49.050781-16.339843-58.238281-39.964843h57.953125c18.074218 0 28.207031-19.144531 19.769531-33.75zm-19.484375 103.75c-42.441406 0-79.5625-29.539063-89.730469-70h15.625c9.8125 32.183593 40.046875 54.964843 74.105469 54.964843 42.714844 0 77.46875-34.75 77.46875-77.464843 0-42.714844-34.753906-77.46875-77.46875-77.46875-5.9375 0-11.824219.683593-17.578125 2.023437l-7.808594-13.527344c8.214844-2.339843 16.71875-3.527343 25.386719-3.527343 51.003906 0 92.5 41.492187 92.5 92.5 0 51.003906-41.496094 92.5-92.5 92.5zm0 0"/></svg>