<svg id="Capa_1" enable-background="new 0 0 512 512" height="512" viewBox="0 0 512 512" width="512" xmlns="http://www.w3.org/2000/svg"><g><g><g><path d="m42.5 347.128v-298.211c0-3.314 2.687-6 6-6h415c3.313 0 6 2.686 6 6v297.885l35 15.28v-329.165c0-13.807-11.193-25-25-25h-446.53c-13.795 0-24.983 11.175-25 24.97l-.47 329.195z" fill="#918291"/></g><g><circle cx="256" cy="399.307" fill="#f9f7f8" r="104.776"/><path d="m287.188 299.252c26.398 19.024 43.587 50.031 43.587 85.055 0 57.866-46.91 104.776-104.776 104.776-10.861 0-21.336-1.653-31.188-4.721 17.216 12.407 38.347 19.721 61.188 19.721 57.866 0 104.776-46.91 104.776-104.776.001-47.004-30.952-86.779-73.587-100.055z" fill="#e5e1e5"/><path d="m288.961 299.817-29.435 21.386c-2.103 1.528-4.951 1.528-7.053 0l-29.435-21.386c7.538-2.481 18.923-5.285 32.961-5.285 7.937 0 19.627.896 32.962 5.285z" fill="#918291"/><path d="m171.564 337.215 11.243 34.603c.803 2.472-.077 5.18-2.18 6.708l-29.435 21.386c-.041-8.31.878-20.755 5.768-34.883 4.247-12.27 10.02-21.572 14.604-27.814z" fill="#918291"/><path d="m170.855 460.423h36.383c2.599 0 4.903 1.674 5.706 4.146l11.243 34.603c-7.911-2.539-19.42-7.258-31.313-16.232-10.39-7.841-17.48-16.219-22.019-22.517z" fill="#7a6d79"/><g fill="#685e68"><path d="m220.864 488.944c-9.029-.436-17.762-2.001-26.051-4.581 4.8 2.902 9.285 7.815 29.365 14.783z"/><path d="m287.813 499.171 11.243-34.603c.803-2.472 3.107-4.146 5.706-4.146h36.383c-4.395 6.093-10.939 13.808-20.248 21.147-12.478 9.838-24.745 14.916-33.084 17.602z"/><path d="m360.807 399.911-29.435-21.386c-2.103-1.528-2.983-4.236-2.18-6.708l11.243-34.603c4.655 6.335 10.702 16.055 15.014 29.021 4.538 13.645 5.401 25.616 5.358 33.676z"/></g><path d="m252.473 363.594-33.192 24.115c-2.103 1.528-2.983 4.236-2.18 6.708l12.678 39.019c.803 2.472 3.107 4.146 5.706 4.146h41.027c2.599 0 4.903-1.674 5.706-4.146l12.678-39.019c.803-2.472-.077-5.18-2.18-6.708l-33.192-24.115c-2.1-1.528-4.948-1.528-7.051 0z" fill="#918291"/></g></g><path d="m256 287.031c-59.806 0-112.268 53.013-112.275 112.262-.007 58.426 52.858 112.29 112.275 112.29 59.007 0 112.283-52.239 112.275-112.289-.007-60.061-51.847-112.263-112.275-112.263zm86.559 67.918c4.664 9.065 7.945 18.952 9.563 29.382l-15.46-11.233zm-10.503-16.215-10.32 31.762-24.612 11.144-33.624-24.43v-29.624l26.649-19.361c16.589 6.24 31.036 16.887 41.907 30.509zm-44.627 54.402-12.005 36.946h-38.848l-12.005-36.946 31.429-22.834zm-31.429-91.105c5.26 0 10.421.425 15.457 1.233l-15.457 11.23-15.457-11.229c5.036-.808 10.197-1.234 15.457-1.234zm-34.149 6.194 26.649 19.361v29.624l-33.625 24.43-24.612-11.144-10.32-31.762c10.872-13.622 25.319-24.269 41.908-30.509zm-52.41 46.724 5.897 18.149-15.46 11.233c1.618-10.43 4.899-20.317 9.563-29.382zm5.435 97.974c-9.453-14.255-15.251-31.131-16.05-49.287l26.208-19.042 24.612 11.144 13.05 40.165-14.553 17.02zm12.238 15h19.033l5.897 18.148c-9.258-4.71-17.667-10.857-24.93-18.148zm94.794 25.152c-8.252 2.283-16.939 3.509-25.908 3.509s-17.655-1.226-25.908-3.509l-10.064-30.972 14.553-17.019h42.837l14.553 17.019zm18.048-7.005 5.897-18.148h19.033c-7.263 7.292-15.672 13.439-24.93 18.148zm37.168-33.147h-33.266l-14.553-17.02 13.05-40.165 24.612-11.144 26.208 19.042c-.8 18.155-6.598 35.031-16.051 49.287zm131.976-416.275c-1.208-.79-2.626-1.231-4.1-1.231h-418c-1.474 0-2.893.442-4.1 1.231-4.653 2.133-7.9 6.824-7.9 12.269v291c0 .04.005.079.006.12.002.145.012.29.022.435.008.104.014.208.026.311.016.138.04.275.063.413.019.108.036.217.059.323.027.125.062.249.096.373.031.116.062.231.099.345.036.111.079.22.121.33.046.123.092.245.144.364.043.097.092.193.139.288.063.128.126.256.197.38.049.086.103.17.155.255.08.128.16.255.247.378.022.031.04.064.063.096.03.042.066.077.097.118.121.159.248.312.38.461.063.071.126.143.192.212.137.143.282.277.43.409.06.053.116.11.177.161.202.168.414.324.633.471.073.049.15.091.225.137.159.098.32.193.486.279.084.044.17.083.256.123.166.078.335.151.508.217.083.032.166.063.25.091.184.063.371.117.56.166.077.02.152.042.229.059.203.045.411.079.62.108.066.009.131.023.198.03.264.029.531.045.802.046.009 0 .018.002.027.002.01 0 .02-.002.03-.002.334-.002.662-.032.984-.076.085-.012.169-.024.254-.039.337-.058.668-.132.988-.233.029-.009.057-.022.085-.031.317-.105.624-.233.92-.377.057-.028.114-.053.17-.082.317-.164.619-.35.908-.555.021-.015.045-.025.066-.041l47.527-34.565h37.97.01.009 20.172c4.143 0 7.5-3.358 7.5-7.5s-3.357-7.5-7.5-7.5h-13.483l-4.276-37.2h35.436l1.86 32.362c.229 3.989 3.535 7.07 7.48 7.07.145 0 .291-.004.438-.012 4.135-.238 7.295-3.783 7.057-7.918l-1.811-31.501h35.486v14.7c0 4.142 3.357 7.5 7.5 7.5s7.5-3.358 7.5-7.5v-14.7h40.424v9.02c0 4.142 3.357 7.5 7.5 7.5s7.5-3.358 7.5-7.5v-9.02h35.49l-1.811 31.501c-.238 4.135 2.922 7.68 7.057 7.918.147.008.292.012.438.012 3.945 0 7.252-3.081 7.48-7.07l1.86-32.362h35.436l-4.276 37.2h-13.485c-4.143 0-7.5 3.358-7.5 7.5s3.357 7.5 7.5 7.5h20.172.009.01 37.97l47.527 34.565c.021.016.045.025.066.041.289.206.592.392.91.556.055.028.11.053.166.08.299.145.606.274.926.379.027.009.053.021.081.03.32.101.652.175.989.233.084.015.168.027.253.039.323.044.65.074.985.076.01 0 .02.002.03.002.009 0 .018-.001.026-.002.272-.001.54-.018.804-.046.065-.007.129-.021.194-.03.21-.029.418-.063.623-.109.077-.017.152-.039.228-.058.191-.049.379-.103.563-.167.083-.028.164-.059.246-.09.175-.067.346-.14.514-.219.084-.039.167-.078.25-.121.17-.088.334-.184.496-.284.072-.044.146-.085.217-.132.22-.147.432-.304.635-.472.06-.05.115-.106.173-.158.15-.132.295-.269.434-.412.065-.068.127-.139.191-.21.133-.149.26-.303.381-.462.031-.041.067-.076.097-.118.022-.031.041-.064.063-.096.086-.123.167-.25.247-.378.052-.085.106-.169.155-.255.07-.124.134-.252.197-.381.047-.096.096-.19.138-.287.053-.12.099-.243.145-.366.042-.109.084-.218.12-.329.037-.113.067-.229.099-.345.034-.124.068-.248.096-.373.023-.107.041-.215.059-.323.023-.137.047-.275.063-.413.012-.103.018-.207.026-.311.01-.145.02-.29.022-.435 0-.04.006-.079.006-.12v-291c-.002-5.444-3.249-10.135-7.902-12.268zm-305.686 103.169h-42.298l-4.276-37.2h44.436zm-5.138-89.4 2.138 37.2h-45.298l-4.276-37.2zm-46.259 141.6h-31.7l-6.414-37.2h33.838zm-6-52.2h-34.7l-6.414-37.2h36.838zm-10.276-89.4 4.276 37.2h-37.7l-6.414-37.2zm-45.741 274.772v-220.733l33.817 196.139zm32.903-118.172h30.838l4.276 37.2h-28.7zm15.414 89.4-6.414-37.2h27.838l4.276 37.2zm24.523-141.6h41.436l2.138 37.2h-39.298zm10.276 89.4-4.276-37.2h38.436l2.138 37.2zm87.67 0h-36.348l-2.138-37.2h38.486zm0-52.2h-39.348l-2.138-37.2h41.486zm0-52.2h-42.348l-2.138-37.2h44.486zm0-52.2h-45.348l-2.138-37.2h47.486zm55.424 156.6h-40.424v-37.2h40.424zm0-52.2h-40.424v-37.2h40.424zm0-52.2h-40.424v-37.2h40.424zm0-52.2h-40.424v-37.2h40.424zm51.352 156.6h-36.352v-37.2h38.49zm3-52.2h-39.352v-37.2h41.49zm3-52.2h-42.352v-37.2h44.49zm3-52.2h-45.352v-37.2h47.49zm79.697-37.2h39.838l-6.414 37.2h-37.7zm-6 52.2h36.838l-6.414 37.2h-34.7zm27.838 52.2-6.414 37.2h-31.7l4.276-37.2zm-84.373-104.4h47.436l-4.276 37.2h-45.298zm-3 52.2h44.436l-4.276 37.2h-42.298zm28.16 141.6h-36.298l2.138-37.2h38.436zm-33.298-52.2 2.138-37.2h41.436l-4.276 37.2zm68.097 104.4h-25.7l4.276-37.2h27.838zm-19.7-52.2 4.276-37.2h30.838l-6.414 37.2zm68.017 80.972-33.817-24.594 33.817-196.139zm17.5-324.772h-446.529c-17.9 0-32.479 14.562-32.5 32.459l-.471 322.03c-.006 4.143 3.347 7.505 7.489 7.511h.011c4.137 0 7.494-3.351 7.5-7.489l.471-322.033c.011-9.638 7.861-17.479 17.5-17.479h446.529c9.649 0 17.5 7.851 17.5 17.5v322c0 4.142 3.357 7.5 7.5 7.5s7.5-3.358 7.5-7.5v-322c0-17.92-14.579-32.499-32.5-32.499z"/></g></svg>