<svg id="Capa_1" enable-background="new 0 0 509.391 509.391" height="512" viewBox="0 0 509.391 509.391" width="512" xmlns="http://www.w3.org/2000/svg"><g><g><path d="m486.354 20.187-103.24 34.258.933 9.584s-47.531 17.994-48.04 18.164c-.509.169-20.538-5.296-20.547-5.299l-241.126 80.012v.001l-33.071 41.665 15.556 147.727 106.532 97.954 126.815 16.323 29.068-29.948 17.087-37.116c.229-.497.973-.334.973.213v53.982c0 13.81 10.89 25.47 24.698 25.717 7.133.128 13.602-2.705 18.252-7.366 4.55-4.55 7.37-10.84 7.37-17.79v-162.816c0-2.224.482-4.421 1.412-6.441l31.686-68.814c1.129-2.452 4.803-1.647 4.803 1.053v86.836c0 13.9 11.27 25.16 25.16 25.16 6.95 0 13.24-2.81 17.8-7.37 4.55-4.55 7.37-10.84 7.37-17.79v-207.639l24.92-54.14c4.319-9.37-4.631-19.37-14.411-16.12z" fill="#fef056"/><g><path d="m170.944 315.205c-43.282-48.376-64.572-108.756-64.585-168.926l-81.994 27.208c-6.22 2.07-10.86 7.32-12.12 13.75-14.79 75.35 4.67 156.48 59.82 218.12 55.14 61.63 133.62 89.96 210.14 83.62 6.53-.54 12.27-4.57 15.01-10.52l36.879-80.107c-60.662-6.195-119.291-34.123-163.15-83.145z" fill="#fedf30"/></g><g><g><g id="XMLID_1066_"><g><path d="m319.234 430.627-22.02 47.83c-2.74 5.95-8.48 9.98-15.01 10.52-76.52 6.34-155-21.99-210.14-83.62-55.15-61.64-74.61-142.77-59.82-218.12 1.26-6.43 5.9-11.68 12.12-13.75l49.97-16.58c-29.67 70.13-18.55 154.23 35.5 214.65 54.05 60.41 136.41 80.79 209.4 59.07z" fill="#e9b665"/></g></g></g><path d="m383.114 54.444c11.243 8.01 18.583 21.143 18.583 35.999 0 24.401-19.781 44.182-44.182 44.182s-44.182-19.781-44.182-44.182c0-4.728.75-9.278 2.125-13.548z" fill="#eb5569"/><circle cx="298.856" cy="257.843" fill="#fdb441" r="44.182"/><g id="XMLID_1068_"><g><path d="m336.194 393.777-16.96 36.85c-27.64 8.22-56.62 10.41-84.9 6.67l.12-.95c-.72-3.59-1.1-7.3-1.1-11.1 0-31.06 25.18-56.24 56.23-56.24 19.4 0 36.5 9.83 46.61 24.77z" fill="#eb5569"/></g><path d="m319.233 430.627 1.459-3.17 13.397-29.108c-25.958-2.651-51.54-9.296-75.756-19.856-15.061 10.091-24.98 27.263-24.98 46.754 0 3.8.38 7.51 1.1 11.1l-.12.95c28.281 3.74 57.261 1.55 84.9-6.67z" fill="#e53950"/><g><g id="XMLID_1070_"><g><path d="m219.994 193.237c0 5.64-2.28 10.74-5.98 14.44s-8.8 5.98-14.44 5.98c-11.28 0-20.42-9.14-20.42-20.42l-.6-70.91 40.84-13.56z" fill="#fdb441"/></g></g></g></g><path d="m280.28 177.501-14.492-8.367c-3.346-1.932-4.492-6.21-2.56-9.555l13.926-24.121c1.932-3.346 6.21-4.492 9.555-2.56l14.492 8.367c3.346 1.932 4.492 6.21 2.56 9.555l-13.926 24.121c-1.932 3.345-6.21 4.491-9.555 2.56z" fill="#eb5569"/><path d="m207.368 325.407-13.877 9.35c-3.204 2.159-7.551 1.311-9.709-1.892l-15.563-23.098c-2.159-3.204-1.311-7.551 1.892-9.709l13.877-9.35c3.204-2.159 7.551-1.311 9.709 1.892l15.563 23.098c2.159 3.203 1.312 7.55-1.892 9.709z" fill="#22b27f"/></g></g><g><path d="m504.435 18.515c-5.204-5.817-13.038-7.903-20.447-5.445l-461.989 153.3c-8.778 2.913-15.337 10.355-17.117 19.425-7.614 38.799-6.301 79.452 3.796 117.564 10.589 39.971 30.033 75.969 57.792 106.996 27.76 31.026 61.382 54.341 99.933 69.294 30.104 11.677 62.548 17.688 94.955 17.687 7.163 0 14.331-.294 21.465-.885 9.21-.765 17.334-6.458 21.201-14.859l25.766-55.966v22.073c0 8.905 3.667 17.61 10.061 23.885 6.307 6.187 14.528 9.485 23.232 9.341 17.664-.336 32.035-14.986 32.035-32.658v-164.542l22.897-49.736v63.531c0 8.904 3.667 17.609 10.061 23.883 6.157 6.042 14.167 9.348 22.616 9.348.205 0 .411-.002.615-.006 17.665-.335 32.036-14.985 32.036-32.658v-74.32c0-4.143-3.357-7.5-7.5-7.5s-7.5 3.357-7.5 7.5v74.32c0 9.558-7.77 17.479-17.32 17.66-4.603.063-9.034-1.706-12.441-5.05-3.538-3.471-5.566-8.273-5.566-13.177v-88.871c0-4.476-3.054-8.271-7.426-9.229-4.374-.958-8.733 1.213-10.603 5.277l-33.995 73.842c-.571 1.233-.874 2.606-.874 3.969v165.759c0 9.557-7.77 17.479-17.32 17.66-4.592.063-9.034-1.706-12.441-5.05-3.538-3.471-5.566-8.274-5.566-13.178v-54.656l16.378-35.575c1.732-3.763.087-8.217-3.676-9.949-3.766-1.732-8.217-.086-9.949 3.676l-13.202 28.677c-11.815-11.657-27.821-18.361-44.752-18.361-8.673 0-17.09 1.718-25.019 5.105-3.81 1.627-5.578 6.034-3.95 9.843 1.627 3.81 6.032 5.579 9.843 3.95 6.056-2.587 12.49-3.898 19.126-3.898 14.824 0 28.712 6.733 37.934 18.17l-13.669 29.691c-23.713 6.615-48.358 8.677-72.703 6.185-.19-1.76-.295-3.535-.295-5.313 0-9.105 2.535-17.991 7.331-25.699 2.188-3.517 1.111-8.142-2.406-10.33-3.513-2.186-8.141-1.111-10.33 2.406-6.276 10.087-9.595 21.714-9.595 33.623 0 1.053.026 2.106.078 3.157-5.544-1.01-11.059-2.258-16.529-3.748-36.323-9.893-68.818-29.983-93.975-58.101-28.153-31.466-45.051-70.321-48.866-112.366-.375-4.125-4.02-7.162-8.147-6.792-4.125.375-7.166 4.022-6.792 8.147 4.11 45.28 22.308 87.126 52.626 121.013 27.092 30.279 62.09 51.917 101.213 62.571 18.268 4.976 36.991 7.46 55.697 7.46 14.985 0 29.957-1.6 44.671-4.787l-15.432 33.52c-1.609 3.496-4.988 5.865-8.816 6.183-37.144 3.083-75.104-2.396-109.755-15.837-36.325-14.09-68.011-36.064-94.178-65.312s-44.494-63.173-54.472-100.835c-9.519-35.928-10.755-74.254-3.577-110.835.74-3.77 3.47-6.864 7.123-8.077l35.03-11.624c-5.788 17.224-9.33 35.129-10.538 53.425-.273 4.134 2.856 7.705 6.989 7.978.169.012.335.017.502.017 3.916 0 7.214-3.041 7.476-7.006 1.378-20.869 6.015-41.19 13.781-60.456l91.693-30.426v60.728c0 15.396 12.524 27.921 27.92 27.921s27.92-12.525 27.92-27.921v-79.257l78.401-26.016c-.039.823-.066 1.648-.066 2.474 0 28.497 23.185 51.682 51.682 51.682s51.682-23.185 51.682-51.682c0-12.087-4.287-23.671-11.82-32.829l91.335-30.307c2.406-.798 3.98.58 4.544 1.21.563.631 1.76 2.345.699 4.649l-24.926 54.141-22.979 49.915c-1.732 3.763-.087 8.217 3.676 9.949 1.017.468 2.082.689 3.132.689 2.838 0 5.553-1.619 6.817-4.365l8.667-18.826v67.136c0 4.143 3.357 7.5 7.5 7.5s7.5-3.357 7.5-7.5v-99.718l24.237-52.647c3.264-7.09 2.059-15.108-3.145-20.924zm-291.939 174.726c0 7.125-5.796 12.921-12.92 12.921s-12.92-5.796-12.92-12.921v-65.705l25.84-8.574zm181.701-102.799c0 20.227-16.455 36.682-36.682 36.682s-36.682-16.455-36.682-36.682c0-2.602.296-5.18.839-7.708l59.957-19.896c7.922 6.933 12.568 17 12.568 27.604z"/><path d="m298.855 309.525c28.497 0 51.682-23.185 51.682-51.682s-23.185-51.682-51.682-51.682-51.682 23.185-51.682 51.682 23.185 51.682 51.682 51.682zm0-88.363c20.227 0 36.682 16.455 36.682 36.682s-16.455 36.682-36.682 36.682-36.682-16.455-36.682-36.682 16.456-36.682 36.682-36.682z"/><path d="m450.602 77.814c2.623-3.205 2.15-7.931-1.056-10.554l-4.261-3.486c-3.204-2.622-7.93-2.152-10.554 1.056-2.623 3.205-2.15 7.931 1.056 10.554l4.261 3.486c1.394 1.141 3.074 1.695 4.745 1.695 2.171 0 4.326-.938 5.809-2.751z"/><path d="m391.931 154.644-3.874 12.24c-1.25 3.948.938 8.163 4.888 9.413.753.238 1.515.352 2.265.352 3.183 0 6.137-2.043 7.148-5.239l3.874-12.24c1.25-3.948-.938-8.163-4.888-9.413-3.948-1.249-8.163.937-9.413 4.887z"/><path d="m262.038 175.629 14.491 8.367c2.233 1.289 4.712 1.948 7.224 1.948 1.26 0 2.527-.166 3.775-.5 3.74-1.002 6.866-3.4 8.802-6.754l13.926-24.12c1.936-3.353 2.45-7.26 1.448-11-1.002-3.739-3.401-6.865-6.754-8.801l-14.491-8.366c-6.924-3.996-15.806-1.618-19.801 5.305l-13.926 24.121c-1.936 3.354-2.45 7.26-1.448 10.999 1.003 3.739 3.401 6.865 6.754 8.801zm21.357-35.984 13.617 7.861-13.421 23.246-13.616-7.861z"/><path d="m190.669 282.28c-3.805-.739-7.662.043-10.873 2.207l-13.876 9.351c-3.211 2.163-5.387 5.447-6.128 9.248-.74 3.801.044 7.662 2.207 10.871l15.563 23.101c2.796 4.148 7.379 6.389 12.042 6.389 2.785 0 5.6-.8 8.078-2.47l13.877-9.351c3.211-2.163 5.387-5.447 6.127-9.248.741-3.8-.043-7.661-2.206-10.872l-15.563-23.098c-2.164-3.211-5.448-5.387-9.248-6.128zm-.95 45.975-14.998-22.26 13.039-8.786 14.998 22.26z"/><path d="m123.333 226.388-5.812 8.136c-2.408 3.37-1.627 8.055 1.743 10.462 1.321.944 2.844 1.398 4.353 1.398 2.341 0 4.646-1.093 6.109-3.142l5.812-8.136c2.408-3.37 1.627-8.055-1.743-10.462-3.371-2.409-8.055-1.625-10.462 1.744z"/></g></g></svg>